<svg xmlns="http://www.w3.org/2000/svg" width="24.204pt" height="10.92pt" role="img" focusable="false" viewBox="0 -705 2017 910" xmlns:xlink="http://www.w3.org/1999/xlink" aria-hidden="true" style="vertical-align: -0.464ex;; color:#000000; fill:#000000; font-size:12pt;" version="1.1" color="#000000" fill="#000000" font-size="12pt" data-font-size-pt="12" data-formula-mode="display" data-math-font="mathjax-newcm" data-math-font-label="MathJax New Computer Modern（内置）"><metadata><latex-source version="1" display="true" mode="display" color="#000000" font-size="12" math-font="mathjax-newcm"><![CDATA[find]]></latex-source><latex-tool>latex-svg-clipboard-local-webpaste</latex-tool><latex-created>2026-07-07T01:55:58.388Z</latex-created></metadata><defs><path id="MJX-10-NCM-I-1D453" d="M552 633C552 677 509 705 462 705C400 705 357 665 334 586C329 568 318 517 302 433L237 433C215 433 204 432 204 411C204 400 214 395 235 395L295 395L222 8C211-49 201-91 192-119C180-156 163-175 141-175C126-175 114-171 103-164C135-159 151-140 151-108C151-82 138-69 111-69C77-69 53-99 53-133C53-177 94-205 141-205C166-205 189-195 208-174C240-141 265-94 283-31C294 8 304 46 311 84L369 395L451 395C474 395 484 396 484 419C484 428 474 433 454 433L377 433C383 474 411 625 420 644C430 665 444 675 462 675C477 675 490 671 501 664C470 657 454 639 454 608C454 582 467 569 494 569C528 569 552 599 552 633Z"/><path id="MJX-10-NCM-N-2061" d=""/><path id="MJX-10-NCM-I-1D456" d="M284 621C284 648 271 661 244 661C216 661 188 633 188 605C188 578 202 565 229 565C257 565 284 593 284 621M259 138C237 59 205 19 164 19C151 19 144 28 144 47C144 64 173 150 232 306C240 329 244 347 244 360C244 409 210 445 161 445C118 445 84 420 59 369C39 328 29 301 29 288C29 279 34 275 45 275C58 275 60 281 64 295C87 375 118 415 158 415C171 415 178 406 178 387C178 373 175 357 168 338C145 275 121 208 101 155C86 115 78 88 78 74C78 25 114-11 162-11C205-11 239 14 264 64C283 103 293 130 293 145C293 154 288 159 277 159C274 159 259 150 259 138Z"/><path id="MJX-10-NCM-N-2062" d=""/><path id="MJX-10-NCM-I-1D45B" d="M537 137C514 58 481 18 440 18C427 18 420 28 420 47C420 61 426 84 438 115C478 224 498 296 498 333C498 403 451 442 381 442C322 442 271 416 230 363C222 407 187 442 136 442C80 442 58 390 44 345C34 313 29 294 29 287C29 278 34 273 45 273C50 273 53 274 56 276C61 285 64 292 65 299C83 375 106 413 133 413C151 413 160 399 160 371C160 358 155 331 144 290L87 63C84 50 78 24 78 19C78-1 89-11 111-11C130-11 144-1 151 19C153 24 159 49 170 92L191 181L221 295C232 318 249 341 270 365C299 397 335 413 378 413C411 413 427 391 427 348C427 310 406 234 363 120C356 102 353 87 353 74C353 25 390-11 438-11C482-11 517 14 542 64C561 104 571 131 571 144C571 153 566 158 555 158C552 158 537 149 537 137Z"/><path id="MJX-10-NCM-I-1D451" d="M429 632L370 389C349 426 320 445 281 445C216 445 159 412 109 345C63 283 40 218 40 151C40 63 91-11 175-11C218-11 260 12 300 59C311 21 345-11 392-11C461-11 483 71 498 145C498 154 493 159 483 159C474 159 468 152 465 138C445 59 421 19 394 19C377 19 368 33 368 60C368 75 370 91 374 107L516 679L516 683C513 690 507 694 499 694C476 694 434 690 374 683C363 682 357 674 357 660C357 650 366 645 384 645C403 645 429 646 429 632M341 376C351 355 356 341 356 332C355 328 354 323 353 316L304 122C301 111 294 99 285 87C248 42 212 19 177 19C138 19 118 49 118 108C118 132 124 168 136 216C157 301 187 359 224 390C244 407 263 415 282 415C309 415 329 402 341 376Z"/></defs><g stroke="#000000" fill="#000000" stroke-width="0" transform="scale(1,-1)"><g data-mml-node="math" data-latex="find" data-semantic-type="appl" data-semantic-role="simple function" data-semantic-annotation="depth:1" data-semantic-id="8" data-semantic-children="0,6" data-semantic-content="7,0" data-semantic-attributes="latex:find" data-speech-node="true" data-semantic-speech-none="f of i n d" data-semantic-summary-none="identifier of product with 3 factors" data-semantic-speech="&lt;mark name=&quot;0&quot;/&gt; &lt;say-as interpret-as=&quot;character&quot;&gt;f&lt;/say-as&gt; &lt;mark name=&quot;6&quot;/&gt; of &lt;mark name=&quot;1&quot;/&gt; &lt;say-as interpret-as=&quot;character&quot;&gt;i&lt;/say-as&gt; &lt;mark name=&quot;2&quot;/&gt; &lt;say-as interpret-as=&quot;character&quot;&gt;n&lt;/say-as&gt; &lt;mark name=&quot;3&quot;/&gt; &lt;say-as interpret-as=&quot;character&quot;&gt;d&lt;/say-as&gt;" data-semantic-summary="&lt;mark name=&quot;0&quot;/&gt; identifier &lt;mark name=&quot;6&quot;/&gt; of product with 3 factors" data-semantic-braille="⠋⠊⠝⠙"><g data-mml-node="mi" data-latex="f" data-semantic-type="identifier" data-semantic-role="simple function" data-semantic-font="italic" data-semantic-annotation="clearspeak:simple;nemeth:number;depth:2" data-semantic-id="0" data-semantic-parent="8" data-semantic-attributes="latex:f" data-semantic-operator="appl" data-speech-node="true" data-semantic-speech-none="f" data-semantic-summary-none="identifier" data-semantic-speech="&lt;mark name=&quot;0&quot;/&gt; &lt;say-as interpret-as=&quot;character&quot;&gt;f&lt;/say-as&gt;" data-semantic-summary="&lt;mark name=&quot;0&quot;/&gt; identifier" data-semantic-braille="⠋"><use data-c="1D453" xmlns:xlink="http://www.w3.org/1999/xlink" xlink:href="#MJX-10-NCM-I-1D453"/></g><g data-mml-node="mo" data-semantic-type="punctuation" data-semantic-role="application" data-semantic-annotation="nemeth:number;depth:2" data-semantic-id="7" data-semantic-parent="8" data-semantic-added="true" data-semantic-operator="appl" transform="translate(552,0)" data-speech-node="true" data-semantic-speech-none="of" data-semantic-summary-none="of" data-semantic-speech="&lt;mark name=&quot;7&quot;/&gt; of" data-semantic-summary="&lt;mark name=&quot;7&quot;/&gt; of" data-semantic-braille="⠀"><use data-c="2061" xmlns:xlink="http://www.w3.org/1999/xlink" xlink:href="#MJX-10-NCM-N-2061"/></g><g data-mml-node="mrow" data-semantic-added="true" data-semantic-type="infixop" data-semantic-role="implicit" data-semantic-annotation="clearspeak:unit;depth:2" data-semantic-id="6" data-semantic-children="1,2,3" data-semantic-content="4,5" data-semantic-parent="8" transform="translate(552,0)" data-speech-node="true" data-semantic-speech-none="i n d" data-semantic-summary-none="product with 3 factors" data-semantic-speech="&lt;mark name=&quot;1&quot;/&gt; &lt;say-as interpret-as=&quot;character&quot;&gt;i&lt;/say-as&gt; &lt;mark name=&quot;2&quot;/&gt; &lt;say-as interpret-as=&quot;character&quot;&gt;n&lt;/say-as&gt; &lt;mark name=&quot;3&quot;/&gt; &lt;say-as interpret-as=&quot;character&quot;&gt;d&lt;/say-as&gt;" data-semantic-summary="&lt;mark name=&quot;6&quot;/&gt; product with 3 factors" data-semantic-braille="⠊⠝⠙"><g data-mml-node="mi" data-latex="i" data-semantic-type="identifier" data-semantic-role="latinletter" data-semantic-font="italic" data-semantic-annotation="clearspeak:simple;nemeth:number;depth:3" data-semantic-id="1" data-semantic-parent="6" data-semantic-attributes="latex:i" data-speech-node="true" data-semantic-speech-none="i" data-semantic-summary-none="identifier" data-semantic-speech="&lt;mark name=&quot;1&quot;/&gt; &lt;say-as interpret-as=&quot;character&quot;&gt;i&lt;/say-as&gt;" data-semantic-summary="&lt;mark name=&quot;1&quot;/&gt; identifier" data-semantic-braille="⠊"><use data-c="1D456" xmlns:xlink="http://www.w3.org/1999/xlink" xlink:href="#MJX-10-NCM-I-1D456"/></g><g data-mml-node="mo" data-semantic-type="operator" data-semantic-role="multiplication" data-semantic-annotation="depth:3" data-semantic-id="4" data-semantic-parent="6" data-semantic-added="true" data-semantic-operator="infixop,⁢" transform="translate(345,0)" data-speech-node="true" data-semantic-braille="⠈⠡"><use data-c="2062" xmlns:xlink="http://www.w3.org/1999/xlink" xlink:href="#MJX-10-NCM-N-2062"/></g><g data-mml-node="mi" data-latex="n" data-semantic-type="identifier" data-semantic-role="latinletter" data-semantic-font="italic" data-semantic-annotation="clearspeak:simple;depth:3" data-semantic-id="2" data-semantic-parent="6" data-semantic-attributes="latex:n" transform="translate(345,0)" data-speech-node="true" data-semantic-speech-none="n" data-semantic-summary-none="identifier" data-semantic-speech="&lt;mark name=&quot;2&quot;/&gt; &lt;say-as interpret-as=&quot;character&quot;&gt;n&lt;/say-as&gt;" data-semantic-summary="&lt;mark name=&quot;2&quot;/&gt; identifier" data-semantic-braille="⠝"><use data-c="1D45B" xmlns:xlink="http://www.w3.org/1999/xlink" xlink:href="#MJX-10-NCM-I-1D45B"/></g><g data-mml-node="mo" data-semantic-type="operator" data-semantic-role="multiplication" data-semantic-annotation="depth:3" data-semantic-id="5" data-semantic-parent="6" data-semantic-added="true" data-semantic-operator="infixop,⁢" transform="translate(945,0)" data-speech-node="true" data-semantic-braille="⠈⠡"><use data-c="2062" xmlns:xlink="http://www.w3.org/1999/xlink" xlink:href="#MJX-10-NCM-N-2062"/></g><g data-mml-node="mi" data-latex="d" data-semantic-type="identifier" data-semantic-role="latinletter" data-semantic-font="italic" data-semantic-annotation="clearspeak:simple;depth:3" data-semantic-id="3" data-semantic-parent="6" data-semantic-attributes="latex:d" transform="translate(945,0)" data-speech-node="true" data-semantic-speech-none="d" data-semantic-summary-none="identifier" data-semantic-speech="&lt;mark name=&quot;3&quot;/&gt; &lt;say-as interpret-as=&quot;character&quot;&gt;d&lt;/say-as&gt;" data-semantic-summary="&lt;mark name=&quot;3&quot;/&gt; identifier" data-semantic-braille="⠙"><use data-c="1D451" xmlns:xlink="http://www.w3.org/1999/xlink" xlink:href="#MJX-10-NCM-I-1D451"/></g></g></g></g></svg>